<?xml version="1.0" encoding="UTF-8"?> <svg xmlns="http://www.w3.org/2000/svg" width="358" height="63" viewBox="0 0 358 63" fill="none"><path d="M189.35 52.8916C188.786 52.935 188.218 52.8634 187.682 52.6812C187.146 52.499 186.652 52.2099 186.23 51.8316L186.72 50.7416C187 52.1416 191.05 52.5816 191.11 50.8916C191.11 50.3416 190.69 50.1016 190.21 49.9616C189.21 49.6816 187.71 49.7716 186.97 48.9616C185.72 47.1716 187.68 45.9616 189.48 46.0916C190.454 46.1403 191.411 46.3569 192.31 46.7316L191.76 47.8117C191.29 46.6417 186.83 46.4916 188.07 48.3416C189.17 49.0416 191.07 48.5816 191.97 49.6216C193.26 51.5716 191.37 53.0616 189.35 52.8916Z" fill="#52545B"></path><path d="M194.121 52.7623H193.781C193.991 52.6023 193.971 52.4223 193.981 52.1123V48.0524C193.981 47.7424 193.981 47.5623 193.781 47.4023H198.591C198.591 47.6323 198.451 48.1823 198.391 48.4023C198.231 48.1923 198.011 48.2223 197.681 48.2023H195.081V49.6724H197.271C197.571 49.6724 197.751 49.6723 197.911 49.4923V50.5823C197.751 50.3923 197.571 50.4123 197.271 50.4023H195.081V51.9723H197.701C198.041 51.9723 198.241 51.9723 198.411 51.7723C198.411 51.9823 198.531 52.5623 198.561 52.7723L194.121 52.7623Z" fill="#52545B"></path><path d="M202.872 52.8727C200.342 53.0627 199.152 50.5727 200.192 48.5127C201.192 46.7927 203.652 47.1627 205.262 47.7627L204.712 48.7627C204.212 48.0227 202.712 48.0026 201.932 48.3426C200.932 48.7626 200.842 50.2326 201.262 51.0726C201.478 51.3601 201.76 51.5911 202.084 51.7456C202.408 51.9001 202.765 51.9736 203.124 51.9598C203.483 51.9461 203.833 51.8454 204.145 51.6665C204.456 51.4876 204.72 51.2359 204.912 50.9327L205.412 51.9327C205.078 52.2586 204.68 52.5107 204.242 52.6726C203.805 52.8345 203.338 52.9027 202.872 52.8727Z" fill="#52545B"></path><path d="M206.871 52.7619H206.531C206.741 52.6019 206.721 52.4218 206.731 52.1118V48.0519C206.731 47.7419 206.731 47.5619 206.531 47.4019C207.741 47.4719 210.261 47.1619 211.201 47.8019C211.446 47.9669 211.634 48.2037 211.739 48.4796C211.844 48.7556 211.861 49.0573 211.787 49.3433C211.714 49.6293 211.554 49.8855 211.329 50.0768C211.104 50.2681 210.825 50.3852 210.531 50.4119C211.841 50.6119 211.401 52.0319 211.961 52.8019H210.651L210.431 51.6219C210.241 50.4819 208.701 50.9518 207.821 50.8518C207.881 51.2418 207.671 52.5619 208.011 52.7819L206.871 52.7619ZM209.391 50.0319C210.451 50.1519 211.161 49.1119 210.331 48.4119C209.881 48.0719 208.421 48.2218 207.821 48.1918V50.0319H209.391Z" fill="#52545B"></path><path d="M213.732 52.7623H213.402C213.602 52.6023 213.582 52.4223 213.592 52.1123V48.0524C213.592 47.7424 213.592 47.5623 213.402 47.4023H218.212C218.212 47.6323 218.062 48.1823 218.002 48.4023C217.842 48.1923 217.622 48.2223 217.292 48.2023H214.702V49.6724H216.872C217.172 49.6724 217.352 49.6723 217.512 49.4923V50.5823C217.352 50.3923 217.172 50.4123 216.872 50.4023H214.692V51.9723H217.312C217.642 51.9723 217.852 51.9723 218.012 51.7723C218.012 51.9823 218.132 52.5623 218.172 52.7723L213.732 52.7623Z" fill="#52545B"></path><path d="M221.352 52.7594H221.022C221.232 52.5994 221.192 52.4194 221.212 52.1094V48.2494H219.822C219.542 48.2494 219.383 48.2494 219.253 48.4194C219.253 48.2294 219.102 47.5594 219.062 47.3594H224.573C224.523 47.5694 224.402 48.2393 224.362 48.4393C224.242 48.2393 224.063 48.2794 223.783 48.2594H222.392V52.0894C222.392 52.3994 222.392 52.5794 222.582 52.7394L221.352 52.7594Z" fill="#52545B"></path><path d="M230.873 52.2506C230.993 52.5006 231.023 52.6306 231.203 52.7506H229.773C230.033 52.5406 229.553 51.8306 229.493 51.5706H226.673C226.613 51.8206 226.083 52.5706 226.413 52.7506H224.973C225.243 52.7506 226.973 48.1506 227.123 47.8806C227.273 47.6106 227.283 47.5106 227.123 47.3906H229.123C228.973 47.5206 229.033 47.6506 229.123 47.8806L230.873 52.2506ZM228.053 48.0106L226.973 50.7806H229.173L228.053 48.0106Z" fill="#52545B"></path><path d="M232.56 52.7619H232.23C232.43 52.6019 232.41 52.4218 232.42 52.1118V48.0519C232.42 47.7419 232.42 47.5619 232.23 47.4019C233.43 47.4719 235.96 47.1619 236.9 47.8019C237.146 47.9675 237.334 48.205 237.438 48.4818C237.543 48.7587 237.559 49.0611 237.484 49.3474C237.409 49.6338 237.248 49.89 237.021 50.0806C236.795 50.2712 236.515 50.387 236.22 50.4119C237.54 50.6119 237.1 52.0319 237.65 52.8019H236.34L236.13 51.6219C235.93 50.4819 234.4 50.9518 233.52 50.8518C233.57 51.2418 233.37 52.5619 233.71 52.7819L232.56 52.7619ZM235.08 50.0319C236.14 50.1519 236.86 49.1119 236.08 48.4119C235.63 48.0719 234.17 48.2218 233.57 48.1918V50.0319H235.08Z" fill="#52545B"></path><path d="M238.871 46.5903L240.061 45.3203H241.291L239.691 46.5903H238.871ZM239.411 52.7604H239.071C239.271 52.6004 239.251 52.4204 239.271 52.1104V48.0504C239.271 47.7404 239.271 47.5604 239.071 47.4004H240.581C240.381 47.5604 240.401 47.7404 240.391 48.0504V52.1104C240.391 52.4204 240.391 52.6004 240.581 52.7604H239.411Z" fill="#52545B"></path><path d="M247.512 52.2506C247.632 52.5006 247.662 52.6306 247.842 52.7506H246.412C246.672 52.5406 246.192 51.8306 246.132 51.5706H243.352C243.292 51.8206 242.762 52.5706 243.092 52.7506H241.652C241.922 52.7506 243.652 48.1506 243.802 47.8806C243.952 47.6106 243.962 47.5106 243.802 47.3906H245.802C245.652 47.5206 245.712 47.6506 245.802 47.8806L247.512 52.2506ZM244.692 48.0106L243.602 50.7806H245.812L244.692 48.0106Z" fill="#52545B"></path><path d="M253.043 52.7621H252.703C252.903 52.6021 252.883 52.4221 252.893 52.1121V48.0521C252.893 47.7421 252.893 47.5621 252.703 47.4021C254.383 47.4521 256.823 47.0521 257.863 48.6121C258.069 48.9348 258.204 49.298 258.257 49.6772C258.31 50.0564 258.281 50.4427 258.172 50.8098C258.063 51.1769 257.876 51.5163 257.625 51.8048C257.373 52.0933 257.062 52.3243 256.713 52.482C255.873 52.872 254.063 52.7421 253.043 52.7621ZM254.903 51.8721C255.339 51.9636 255.793 51.8931 256.181 51.6738C256.568 51.4546 256.862 51.1017 257.008 50.681C257.154 50.2604 257.142 49.8009 256.973 49.3888C256.805 48.9766 256.492 48.64 256.093 48.442C255.421 48.2512 254.72 48.1835 254.023 48.2421V51.8721H254.903Z" fill="#52545B"></path><path d="M260.102 52.7623H259.762C259.962 52.6023 259.942 52.4223 259.962 52.1123V48.0524C259.962 47.7424 259.962 47.5623 259.762 47.4023H264.572C264.572 47.6323 264.432 48.1823 264.372 48.4023C264.212 48.1923 263.992 48.2223 263.652 48.2023H261.062V49.6724H263.242C263.542 49.6724 263.732 49.6723 263.892 49.4923V50.5823C263.732 50.3923 263.542 50.4123 263.242 50.4023H261.062V51.9723H263.682C264.012 51.9723 264.222 51.9723 264.392 51.7723C264.392 51.9823 264.522 52.5623 264.552 52.7723L260.102 52.7623Z" fill="#52545B"></path><path d="M271.962 52.7612H271.532C271.782 52.5512 271.752 52.3612 271.772 51.9712V47.2512H270.142C269.822 47.2512 269.612 47.2512 269.462 47.4512C269.462 47.2412 269.292 46.4513 269.262 46.2812H275.552C275.552 46.5113 275.362 47.2812 275.322 47.4612C275.152 47.2512 274.962 47.2612 274.632 47.2512H272.972V51.9712C272.972 52.3512 272.972 52.5512 273.192 52.7612H271.962Z" fill="#52545B"></path><path d="M279.214 52.8528C275.824 52.9028 276.734 50.3128 276.614 48.0328C276.614 47.7228 276.614 47.5428 276.414 47.3828H277.944C277.734 47.5328 277.764 47.7228 277.754 48.0328V50.8428C277.754 51.7228 278.294 51.9428 279.194 51.9528C280.094 51.9628 280.614 51.7228 280.634 50.8428V48.0328C280.634 47.7228 280.634 47.5328 280.434 47.3828H281.874C281.664 47.5328 281.694 47.7228 281.674 48.0328C281.604 50.2528 282.514 52.9028 279.214 52.8528Z" fill="#52545B"></path><path d="M283.762 52.7619H283.422C283.632 52.6019 283.612 52.4218 283.622 52.1118V48.0519C283.622 47.7419 283.622 47.5619 283.422 47.4019C284.622 47.4719 287.152 47.1619 288.092 47.8019C288.337 47.9669 288.524 48.2037 288.629 48.4796C288.734 48.7556 288.751 49.0573 288.678 49.3433C288.604 49.6293 288.444 49.8855 288.219 50.0768C287.995 50.2681 287.716 50.3852 287.422 50.4119C288.732 50.6119 288.292 52.0319 288.852 52.8019H287.542L287.322 51.6219C287.132 50.4819 285.592 50.9518 284.712 50.8518C284.772 51.2418 284.562 52.5619 284.902 52.7819L283.762 52.7619ZM286.272 50.0319C287.342 50.1519 288.052 49.1119 287.272 48.4119C286.822 48.0719 285.362 48.2218 284.762 48.1918V50.0319H286.272Z" fill="#52545B"></path><path d="M290.633 52.7623H290.293C290.493 52.6023 290.473 52.4223 290.483 52.1123V48.0524C290.483 47.7424 290.483 47.5623 290.293 47.4023H291.793C291.593 47.5623 291.613 47.7424 291.593 48.0524V52.1123C291.593 52.4223 291.593 52.6023 291.793 52.7623H290.633Z" fill="#52545B"></path><path d="M295.612 52.891C294.638 52.9398 293.678 52.6423 292.902 52.051L293.332 51.051C293.652 52.371 297.982 52.511 296.822 50.681C295.912 50.071 294.322 50.501 293.532 49.681C292.472 48.171 294.132 47.091 295.762 47.231C296.592 47.2938 297.41 47.4688 298.192 47.751L297.672 48.751C297.272 47.831 293.532 47.6709 294.582 49.1909C295.582 49.7509 297.112 49.3409 297.902 50.1909C299.032 51.7709 297.372 53.021 295.612 52.891Z" fill="#52545B"></path><path d="M299.971 52.7623H299.641C299.841 52.6023 299.821 52.4223 299.831 52.1123V48.0524C299.831 47.7424 299.831 47.5623 299.641 47.4023H301.491C301.351 47.5323 301.491 47.6623 301.551 47.8723L303.211 50.6624L304.841 47.8723C304.931 47.6623 305.051 47.5323 304.911 47.4023H306.781C306.591 47.5623 306.601 47.7424 306.591 48.0524V52.1123C306.591 52.4223 306.591 52.5923 306.781 52.7623H305.291C305.481 52.6023 305.471 52.4223 305.481 52.1123V48.6023H305.431L303.381 52.2123H302.871L300.771 48.6023V52.1123C300.771 52.4223 300.771 52.6023 300.961 52.7623H299.971Z" fill="#52545B"></path><path d="M311.242 52.8797C307.242 53.1497 307.242 46.9597 311.242 47.2397C315.212 46.9697 315.192 53.1497 311.242 52.8797ZM311.242 51.9797C313.592 52.1797 313.602 47.9797 311.242 48.1297C308.872 47.9297 308.872 52.1697 311.242 51.9797Z" fill="#52545B"></path><path d="M185.002 62.0429H184.672C184.872 61.8929 184.852 61.7128 184.872 61.3928V57.3928C184.872 57.0728 184.872 56.8928 184.672 56.7328C186.352 56.7328 188.792 56.3828 189.832 57.9428C190.036 58.2659 190.169 58.6293 190.222 59.0081C190.274 59.3869 190.245 59.7725 190.136 60.1391C190.027 60.5056 189.841 60.8447 189.59 61.1334C189.339 61.4221 189.03 61.6538 188.682 61.8129C187.812 62.1629 186.032 62.0229 185.002 62.0429ZM186.862 61.1629C187.299 61.2592 187.756 61.192 188.147 60.974C188.538 60.7561 188.835 60.4024 188.983 59.98C189.131 59.5576 189.119 59.0956 188.949 58.6815C188.779 58.2674 188.464 57.9299 188.062 57.7328C187.389 57.5428 186.688 57.4751 185.992 57.5329V61.1629H186.862Z" fill="#52545B"></path><path d="M192.06 62.0405H191.73C191.93 61.8905 191.91 61.7105 191.92 61.3905V57.3905C191.92 57.0705 191.92 56.8905 191.73 56.7305H196.55C196.55 56.9505 196.41 57.5105 196.34 57.7305C196.18 57.5205 195.96 57.5405 195.63 57.5305H193.04V58.9905H195.22C195.52 58.9905 195.7 58.9904 195.86 58.8204V59.9005C195.7 59.7205 195.52 59.7405 195.22 59.7305H193.04V61.2905H195.66C195.99 61.2905 196.2 61.2905 196.36 61.1005C196.36 61.3105 196.48 61.8805 196.52 62.1005L192.06 62.0405Z" fill="#52545B"></path><path d="M198.31 62.0405H197.98C198.18 61.8905 198.16 61.7105 198.17 61.3905V57.3905C198.17 57.0705 198.17 56.8905 197.98 56.7305H199.49C199.28 56.8905 199.31 57.0705 199.3 57.3905V61.2104H201.55C201.89 61.2104 202.12 61.2105 202.28 61.0305C202.28 61.2505 202.37 61.8705 202.4 62.1005L198.31 62.0405Z" fill="#52545B"></path><path d="M207.871 62.0421H207.461C207.691 61.8321 207.671 61.6421 207.681 61.2521V56.3721C207.681 55.9821 207.681 55.792 207.461 55.582H212.951C212.901 55.852 212.801 56.4821 212.771 56.7421C212.561 56.4821 212.321 56.5121 211.901 56.4921H208.901V58.3521H211.401C211.791 58.3521 211.981 58.3521 212.191 58.1121V59.4021C211.981 59.1621 211.791 59.1821 211.401 59.1621H208.871V61.1621H211.871C212.281 61.1621 212.521 61.1621 212.731 60.9221C212.781 61.1721 212.861 61.8021 212.891 62.0621L207.871 62.0421Z" fill="#52545B"></path><path d="M216.493 62.17C215.523 62.2255 214.565 61.9309 213.793 61.34L214.223 60.34C214.543 61.66 218.863 61.8 217.713 59.96C216.803 59.36 215.213 59.78 214.423 58.96C213.353 57.46 215.013 56.38 216.653 56.52C217.483 56.5781 218.302 56.7532 219.083 57.04L218.563 57.98C218.163 57.07 214.433 56.9101 215.483 58.4301C216.483 58.9801 218.013 58.5701 218.803 59.4301C219.923 61.0601 218.263 62.31 216.493 62.17Z" fill="#52545B"></path><path d="M222.222 62.0419H221.872C222.082 61.8919 222.042 61.7118 222.052 61.3918V57.5718H220.672C220.392 57.5718 220.222 57.5718 220.092 57.7318C220.092 57.5418 219.942 56.8619 219.902 56.6719H225.412C225.362 56.8819 225.242 57.5418 225.192 57.7418C225.072 57.5418 224.892 57.5818 224.622 57.5718H223.222V61.3918C223.222 61.7018 223.222 61.8919 223.422 62.0419H222.222Z" fill="#52545B"></path><path d="M231.731 61.5302C231.851 61.7802 231.881 61.9101 232.061 62.0201H230.631C230.891 61.8101 230.411 61.1101 230.351 60.8401H227.561C227.501 61.1001 226.981 61.8401 227.301 62.0201H225.871C226.141 62.0201 227.871 57.4202 228.021 57.1602C228.171 56.9002 228.181 56.7802 228.021 56.6602H230.021C229.871 56.7902 229.931 56.9302 230.021 57.1602L231.731 61.5302ZM228.871 57.2501L227.781 60.0201H229.991L228.871 57.2501Z" fill="#52545B"></path><path d="M233.443 62.0429H233.113C233.313 61.8929 233.293 61.7128 233.303 61.3928V57.3928C233.303 57.0728 233.303 56.8928 233.113 56.7328C234.783 56.7328 237.233 56.3828 238.263 57.9428C238.469 58.2655 238.604 58.6289 238.657 59.0081C238.71 59.3873 238.682 59.7734 238.572 60.1405C238.463 60.5076 238.277 60.847 238.025 61.1355C237.773 61.424 237.462 61.6551 237.113 61.8129C236.253 62.1629 234.463 62.0229 233.443 62.0429ZM235.303 61.1629C235.74 61.2592 236.198 61.192 236.588 60.974C236.979 60.7561 237.277 60.4024 237.425 59.98C237.572 59.5576 237.56 59.0956 237.39 58.6815C237.221 58.2674 236.905 57.9299 236.503 57.7328C235.827 57.5425 235.123 57.4748 234.423 57.5329V61.1629H235.303Z" fill="#52545B"></path><path d="M242.871 62.1594C238.871 62.4394 238.871 56.2394 242.871 56.5294C246.871 56.2494 246.811 62.4294 242.871 62.1594ZM242.871 61.2694C245.221 61.4594 245.231 57.2694 242.871 57.4194C240.451 57.2494 240.471 61.4494 242.871 61.2494V61.2694Z" fill="#52545B"></path><path d="M251.434 62.0429H251.094C251.304 61.8929 251.284 61.7128 251.294 61.3928V57.3928C251.294 57.0728 251.294 56.8928 251.094 56.7328C252.774 56.7328 255.214 56.3828 256.254 57.9428C256.46 58.2655 256.594 58.6289 256.648 59.0081C256.701 59.3873 256.672 59.7734 256.563 60.1405C256.454 60.5076 256.267 60.847 256.015 61.1355C255.764 61.424 255.453 61.6551 255.104 61.8129C254.244 62.1629 252.454 62.0229 251.434 62.0429ZM253.284 61.1629C253.721 61.2592 254.178 61.192 254.569 60.974C254.96 60.7561 255.257 60.4024 255.405 59.98C255.553 59.5576 255.541 59.0956 255.371 58.6815C255.201 58.2674 254.886 57.9299 254.484 57.7328C253.811 57.5424 253.11 57.4747 252.414 57.5329V61.1629H253.284Z" fill="#52545B"></path><path d="M258.482 62.0405H258.152C258.352 61.8905 258.332 61.7105 258.352 61.3905V57.3905C258.352 57.0705 258.352 56.8905 258.152 56.7305H262.972C262.972 56.9505 262.832 57.5105 262.772 57.7305C262.612 57.5205 262.392 57.5405 262.052 57.5305H259.462V58.9905H261.642C261.942 58.9905 262.122 58.9904 262.282 58.8204V59.9005C262.122 59.7205 261.942 59.7405 261.642 59.7305H259.462V61.2905H262.082C262.412 61.2905 262.622 61.2905 262.792 61.1005C262.792 61.3105 262.922 61.8805 262.952 62.1005L258.482 62.0405Z" fill="#52545B"></path><path d="M268.754 62.0401H268.344C268.574 61.8301 268.554 61.6401 268.564 61.2501V56.3701C268.564 55.9801 268.564 55.7901 268.344 55.5801C269.664 55.5801 271.784 55.4101 272.924 55.9501C275.334 56.8401 275.294 60.8001 272.924 61.7101C271.954 62.1701 269.874 62.0201 268.754 62.0401ZM270.834 61.0401C271.279 61.1001 271.733 61.0388 272.146 60.8628C272.56 60.6868 272.918 60.4027 273.184 60.0401C273.784 59.0401 273.564 57.1901 272.294 56.7301C271.473 56.493 270.615 56.4083 269.764 56.4801V61.0801L270.834 61.0401Z" fill="#52545B"></path><path d="M278.87 62.1401C275.48 62.1401 276.39 59.6001 276.27 57.3201C276.27 57.0001 276.27 56.8202 276.07 56.6602H277.63C277.41 56.8202 277.45 57.0001 277.43 57.3201V60.1301C277.43 61.0101 277.97 61.2201 278.87 61.2301C279.77 61.2401 280.29 61.0001 280.31 60.1301V57.3201C280.31 57.0001 280.31 56.8202 280.11 56.6602H281.58C281.37 56.8202 281.4 57.0001 281.39 57.3201C281.23 59.5301 282.15 62.1801 278.87 62.1401Z" fill="#52545B"></path><path d="M283.392 62.0401H283.062C283.263 61.8901 283.243 61.71 283.253 61.39V57.39C283.253 57.07 283.252 56.89 283.062 56.73C284.263 56.8 286.792 56.49 287.732 57.13C287.978 57.2956 288.166 57.5333 288.27 57.8101C288.375 58.0869 288.391 58.3894 288.316 58.6757C288.241 58.962 288.08 59.2181 287.854 59.4087C287.627 59.5994 287.347 59.7151 287.052 59.74C288.362 59.94 287.932 61.35 288.482 62.12H287.172L286.962 60.94C286.762 59.8 285.223 60.2701 284.353 60.1801C284.353 60.5601 284.193 61.89 284.533 62.1L283.392 62.0401ZM285.913 59.3101C286.973 59.4401 287.683 58.4 286.853 57.7C286.413 57.35 284.943 57.5 284.353 57.47V59.3101H285.913Z" fill="#52545B"></path><path d="M295.092 61.5302C295.202 61.7802 295.242 61.9101 295.422 62.0201H293.992C294.252 61.8101 293.772 61.1101 293.712 60.8401H290.872C290.812 61.1001 290.282 61.8401 290.612 62.0201H289.172C289.452 62.0201 291.172 57.4202 291.332 57.1602C291.492 56.9002 291.482 56.7802 291.332 56.6602H293.332C293.182 56.7902 293.242 56.9302 293.332 57.1602L295.092 61.5302ZM292.272 57.2501L291.182 60.0201H293.392L292.272 57.2501Z" fill="#52545B"></path><path d="M296.811 62.0405H296.461C296.671 61.8905 296.651 61.7005 296.661 61.3905V57.3905C296.661 57.0705 296.661 56.8905 296.461 56.7305H297.871L300.871 60.4005V57.4005C300.871 57.0705 300.871 56.9105 300.691 56.7405C301.061 56.7405 301.691 56.7405 302.041 56.7405C301.811 56.8805 301.871 57.0805 301.851 57.3905V62.1105H300.851L297.541 58.0305V61.4504C297.541 61.7704 297.541 61.9305 297.741 62.1005L296.811 62.0405Z" fill="#52545B"></path><path d="M306.533 62.151C304.053 62.371 302.893 59.791 303.903 57.801C304.903 56.041 307.343 56.491 308.903 57.041L308.363 58.041C307.863 57.281 306.363 57.241 305.583 57.621C304.583 58.071 304.523 59.541 304.903 60.411C305.603 61.901 308.433 61.471 308.213 59.621C307.823 59.621 306.643 59.511 306.333 59.731H306.263L306.403 58.9409H309.303C309.483 60.8009 308.503 62.251 306.533 62.151Z" fill="#52545B"></path><path d="M313.402 62.1594C309.402 62.4394 309.402 56.2394 313.402 56.5294C317.372 56.2494 317.362 62.4294 313.402 62.1594ZM313.402 61.2694C315.762 61.4594 315.772 57.2694 313.402 57.4194C310.992 57.2494 311.012 61.4494 313.402 61.2494V61.2694Z" fill="#52545B"></path><path d="M155.114 41.5412C149.974 41.4712 144.394 40.7212 140.004 38.4212L142.694 31.3712H142.874C144.404 35.1012 150.574 35.7211 154.364 35.8511C157.754 35.7011 161.744 35.8512 162.044 32.7712C162.07 32.365 161.992 31.9588 161.817 31.5913C161.642 31.2237 161.376 30.9071 161.044 30.6712C158.944 29.4012 157.044 29.6712 154.164 29.3012C148.364 28.8612 141.924 28.3011 141.934 21.3611C142.164 13.8611 150.304 12.9512 156.854 12.8712C161.594 12.6812 165.764 14.2711 170.294 14.7011V14.7712L167.134 21.3211H166.984C165.734 17.8711 150.224 16.3211 149.984 20.7011C150.204 23.7811 154.554 23.2911 157.304 23.7011C159.525 23.823 161.734 24.1072 163.914 24.5512C165.618 24.9174 167.184 25.756 168.434 26.9711C170.874 29.1611 170.964 35.0612 168.584 37.5612C165.344 41.0512 160.444 41.4212 155.114 41.5412Z" fill="#52545B"></path><path d="M180.401 40.8407H178.211V40.7207C179.341 39.8107 179.211 38.9107 179.301 37.1407V17.2507C179.221 15.4807 179.301 14.5708 178.211 13.6608V13.5508H206.031C205.751 15.0508 205.031 18.7807 204.821 20.2507H204.701C203.811 19.0207 202.511 19.1707 200.701 19.0807H187.211V24.4108H198.551C200.331 24.3308 201.291 24.4808 202.171 23.2808H202.291V30.2808H202.171C201.291 29.0908 200.371 29.2808 198.591 29.1508H187.211V35.0707H200.871C202.651 34.9807 203.921 35.0707 204.801 33.9807H204.921C205.221 35.4207 205.821 39.2207 206.051 40.7207L180.401 40.8407Z" fill="#52545B"></path><path d="M223.994 40.8416H221.814V40.7216C223.004 39.8316 222.814 38.9216 222.944 37.1416V19.8816H215.534C214.064 19.9416 213.024 19.8816 212.344 20.8816H212.264C212.054 19.6416 211.264 14.8816 211.094 13.6016H243.004C242.764 14.9516 242.004 19.6016 241.714 20.8816H241.604C241.004 19.8816 239.864 19.9716 238.484 19.8816H231.084V37.1416C231.154 38.9116 231.084 39.8216 232.214 40.7216V40.8416H223.994Z" fill="#52545B"></path><path d="M264.731 41.4607C255.951 41.3907 249.571 38.8407 249.431 29.9707V17.2507C249.361 15.4707 249.431 14.5608 248.301 13.6608V13.5508H258.771V13.6608C257.641 14.5708 257.771 15.4807 257.681 17.2507V30.0608C257.811 34.2408 260.401 35.0607 264.681 35.1307C269.051 35.0507 271.681 34.2808 271.771 30.0608V17.2507C271.701 15.4807 271.821 14.5708 270.681 13.6608V13.5508H280.461V13.6608C279.271 14.5508 279.411 15.4707 279.331 17.2507V29.9507C279.361 38.7007 273.341 41.4007 264.731 41.4607Z" fill="#52545B"></path><path d="M290.992 40.8407H288.812V40.7207C289.952 39.8107 289.812 38.9107 289.902 37.1407V17.2507C289.832 15.4807 289.952 14.5708 288.812 13.6608V13.5508H316.622C316.342 15.0508 315.622 18.7807 315.422 20.2507H315.302C314.402 19.0207 313.112 19.1707 311.302 19.0807H297.812V24.4108H309.152C310.922 24.3308 311.882 24.4808 312.772 23.2808H312.892V30.2808H312.772C311.882 29.0908 310.962 29.2808 309.182 29.1508H297.812V35.0707H311.443C313.223 34.9807 314.503 35.0707 315.383 33.9807H315.492C315.802 35.4207 316.392 39.2207 316.622 40.7207L290.992 40.8407Z" fill="#52545B"></path><path d="M326.75 40.8407H324.57V40.7207C325.71 39.8107 325.57 38.9107 325.66 37.1407V17.2507C325.59 15.4807 325.71 14.5708 324.57 13.6608V13.5508C325.77 13.5508 336.25 13.5508 337.74 13.5508C344.56 13.6308 350.84 14.7208 354.74 19.6608C359.46 26.5508 356.66 36.6607 348.24 39.2607C343.23 41.4407 332.59 40.7307 326.75 40.8407ZM337.89 34.7607C341.77 34.7607 345.36 34.0908 347.54 31.2708C350.12 27.5708 348.59 21.7507 343.87 20.5007C341.43 19.5007 336.78 19.6307 333.8 19.6407V34.7607H337.89Z" fill="#52545B"></path><path d="M3.4003 51.01C3.15588 50.9113 2.88326 50.9081 2.6366 51.0011C2.38994 51.0941 2.18728 51.2764 2.06889 51.512C1.9505 51.7475 1.92503 52.019 1.99754 52.2725C2.07005 52.5259 2.23525 52.7428 2.4603 52.88C2.58019 52.9559 2.71484 53.0053 2.85532 53.0252C2.99581 53.045 3.1389 53.0347 3.2751 52.995C3.4113 52.9553 3.53749 52.8871 3.64528 52.7948C3.75308 52.7026 3.84001 52.5884 3.9003 52.46C3.9633 52.332 4.00033 52.193 4.00927 52.0507C4.01822 51.9084 3.99889 51.7657 3.9524 51.6309C3.90592 51.4961 3.8332 51.3718 3.73844 51.2653C3.64368 51.1587 3.52876 51.0719 3.4003 51.01ZM3.4003 52.3001C3.35579 52.3885 3.28554 52.4613 3.19881 52.509C3.11208 52.5568 3.01293 52.577 2.91442 52.5673C2.81591 52.5575 2.72267 52.5181 2.64696 52.4544C2.57126 52.3906 2.51664 52.3054 2.4903 52.21C2.43697 52.0271 2.43697 51.8329 2.4903 51.65C2.53552 51.565 2.60435 51.4948 2.68851 51.4479C2.77267 51.401 2.86858 51.3794 2.9647 51.3858C3.06083 51.3921 3.15308 51.4261 3.23036 51.4837C3.30764 51.5412 3.36665 51.6197 3.4003 51.71C3.46949 51.8991 3.47995 52.1049 3.43031 52.3001H3.4003Z" fill="#BABAB3"></path><path d="M5.9338 52.5605H4.7938C5.0738 52.1805 5.6838 52.1904 5.9038 51.7504C6.1738 50.9404 4.9038 50.7504 4.4038 51.0904C4.38867 51.2467 4.38867 51.4042 4.4038 51.5605C4.6038 51.4005 5.5438 51.1805 5.4038 51.6505C5.1538 51.9405 4.7238 51.9905 4.4638 52.2805C4.38368 52.3706 4.32497 52.4777 4.29207 52.5937C4.25917 52.7097 4.25292 52.8316 4.2738 52.9504C4.7938 53.0104 5.3838 52.9504 5.9238 52.9504C5.9838 52.8504 5.9238 52.6905 5.9238 52.5605C5.9238 52.4305 5.9538 52.5605 5.9338 52.5605Z" fill="#BABAB3"></path><path d="M7.87172 52.5613H6.73172C7.01172 52.1813 7.63173 52.1913 7.84173 51.7413C8.11173 50.9413 6.84172 50.7412 6.35172 51.0912C6.33152 51.2473 6.33152 51.4053 6.35172 51.5613C6.61172 51.4013 7.27172 51.1913 7.35172 51.5613C7.10172 52.0413 6.17172 52.0312 6.19172 52.7212C6.19172 52.8012 6.19172 52.9112 6.19172 52.9612H7.87172C7.92172 52.8612 7.87172 52.7012 7.87172 52.5712C7.87172 52.4412 7.87172 52.5613 7.87172 52.5613Z" fill="#BABAB3"></path><path d="M1.64352 52.5627H0.503518C0.773518 52.1927 1.37352 52.1927 1.60352 51.7727C1.91352 50.9627 0.603518 50.7727 0.113518 51.0927C0.103129 51.2525 0.103129 51.4128 0.113518 51.5726C0.313518 51.3826 1.38352 51.1926 1.11352 51.6926C0.843518 51.9426 0.453519 52.0127 0.203518 52.2827C0.122106 52.372 0.0625642 52.4791 0.0295912 52.5953C-0.00338184 52.7116 -0.00888599 52.8339 0.0135161 52.9526C0.533516 53.0126 1.12352 52.9526 1.66352 52.9526C1.72352 52.8526 1.66352 52.6927 1.66352 52.5627C1.66352 52.4327 1.66352 52.5627 1.64352 52.5627Z" fill="#BABAB3"></path><path d="M102.604 52.042C102.527 51.9711 102.434 51.9196 102.334 51.892C103.184 51.422 102.214 50.792 101.574 50.962C101.054 50.962 100.654 51.682 101.274 51.892C101.173 51.9097 101.08 51.9573 101.006 52.0287C100.933 52.1001 100.882 52.1919 100.862 52.2923C100.841 52.3926 100.852 52.4969 100.891 52.5914C100.931 52.6858 100.998 52.7661 101.084 52.8219C101.634 53.2519 103.224 52.922 102.604 52.042ZM101.474 51.412C101.664 51.3416 101.873 51.3416 102.064 51.412C102.674 51.772 101.084 51.902 101.474 51.412ZM102.114 52.5521C101.794 52.7221 100.974 52.492 101.484 52.092C101.814 51.932 102.634 52.1521 102.114 52.5521Z" fill="#BABAB3"></path><path d="M97.9819 51.0116C97.7339 50.8883 97.4471 50.8685 97.1846 50.9566C96.922 51.0448 96.7052 51.2336 96.5819 51.4816C96.4586 51.7295 96.4388 52.0164 96.5269 52.2789C96.6151 52.5415 96.8039 52.7582 97.0519 52.8816C97.1718 52.9574 97.3064 53.0069 97.4469 53.0267C97.5874 53.0465 97.7305 53.0363 97.8667 52.9966C98.0029 52.9568 98.1291 52.8886 98.2369 52.7964C98.3447 52.7041 98.4316 52.59 98.4919 52.4615C98.5559 52.3333 98.5936 52.1935 98.6025 52.0504C98.6115 51.9073 98.5916 51.7638 98.544 51.6285C98.4964 51.4933 98.4221 51.369 98.3256 51.263C98.229 51.1571 98.1122 51.0715 97.9819 51.0116ZM97.9819 52.3016C97.9354 52.389 97.864 52.4606 97.7768 52.5074C97.6895 52.5542 97.5903 52.5741 97.4918 52.5644C97.3933 52.5548 97.2998 52.516 97.2233 52.4532C97.1467 52.3904 97.0906 52.3063 97.0619 52.2115C97.0122 52.0282 97.0122 51.835 97.0619 51.6516C97.116 51.5433 97.2082 51.4588 97.3209 51.4145C97.4335 51.3702 97.5585 51.3692 97.6719 51.4116C98.1219 51.5116 98.1319 52.0016 98.0219 52.3016H97.9819Z" fill="#BABAB3"></path><path d="M100.522 52.5622H99.3816C99.6616 52.1922 100.272 52.2022 100.482 51.7622C100.762 50.9522 99.4816 50.7621 98.9916 51.1021C98.9764 51.2584 98.9764 51.4158 98.9916 51.5721C99.2016 51.4121 100.142 51.1922 99.9916 51.6622C99.7416 51.9522 99.3016 52.0022 99.0416 52.2922C98.963 52.3851 98.9061 52.4943 98.875 52.6119C98.8438 52.7295 98.8393 52.8525 98.8616 52.9721C99.3816 52.9721 99.9716 52.9721 100.512 52.9721C100.512 52.8721 100.512 52.7121 100.512 52.5821C100.512 52.4521 100.542 52.5622 100.522 52.5622Z" fill="#BABAB3"></path><path d="M96.223 52.5609H95.0929C95.3629 52.1909 95.9529 52.1908 96.1829 51.7708C96.4929 50.9308 95.2329 50.7708 94.7029 51.0908C94.6878 51.2471 94.6878 51.4046 94.7029 51.5609C94.9029 51.3809 95.9629 51.1907 95.7029 51.6907C95.4329 51.9407 95.0429 52.0108 94.7829 52.2808C94.7052 52.3722 94.6487 52.4797 94.6176 52.5955C94.5865 52.7114 94.5814 52.8327 94.6029 52.9507C95.1129 53.0107 95.7129 52.9507 96.2529 52.9507C96.3129 52.8507 96.2529 52.6909 96.2529 52.5609C96.2529 52.4309 96.253 52.5609 96.223 52.5609Z" fill="#BABAB3"></path><path d="M26.1016 61.1328C26.4295 61.2175 26.7736 61.2175 27.1016 61.1328C26.7736 61.2175 26.4295 61.2175 26.1016 61.1328Z" fill="#BABAB3"></path><path d="M31.1215 60.001H30.9815C31.0916 59.9805 31.1924 59.9256 31.2694 59.8443C31.3464 59.7629 31.3956 59.6593 31.4101 59.5482C31.4245 59.4372 31.4034 59.3244 31.3498 59.2261C31.2961 59.1278 31.2127 59.049 31.1115 59.001C30.5042 58.8468 29.8743 58.8028 29.2515 58.871C29.1515 59.571 29.2515 60.431 29.2515 61.181C29.9615 61.101 31.3415 61.531 31.4715 60.501C31.4765 60.3907 31.4449 60.2819 31.3816 60.1914C31.3183 60.101 31.2268 60.034 31.1215 60.001ZM29.7615 59.3209C30.0715 59.3809 30.6915 59.141 30.7615 59.531C30.6615 59.931 30.0415 59.691 29.7615 59.751V59.3209ZM30.6015 60.7009H29.7615C29.7615 60.5509 29.7015 60.261 29.7615 60.171C30.0715 60.231 30.7615 59.991 30.8215 60.401C30.8271 60.4352 30.8259 60.4702 30.8179 60.5039C30.8099 60.5376 30.7951 60.5694 30.7746 60.5973C30.7542 60.6253 30.7283 60.6488 30.6985 60.6666C30.6688 60.6844 30.6358 60.6961 30.6015 60.7009Z" fill="#BABAB3"></path><path d="M27.211 58.9127C26.541 58.6927 25.571 58.8426 25.361 59.6126C25.2587 59.8921 25.2657 60.1998 25.3807 60.4742C25.4957 60.7487 25.7101 60.9695 25.981 61.0926C26.3091 61.2485 26.6836 61.2765 27.0312 61.1711C27.3788 61.0657 27.6747 60.8345 27.861 60.5227C27.9294 60.375 27.9668 60.2149 27.9709 60.0522C27.975 59.8895 27.9456 59.7278 27.8847 59.5769C27.8238 59.426 27.7326 59.2891 27.6167 59.1749C27.5008 59.0607 27.3627 58.9715 27.211 58.9127ZM27.351 60.2527C27.061 61.0627 25.581 60.7427 25.921 59.7527C26.231 58.9827 27.661 59.3027 27.351 60.2527Z" fill="#BABAB3"></path><path d="M46.4315 58.9127C45.7615 58.6927 44.8015 58.8426 44.5915 59.6126C44.4892 59.8921 44.4962 60.1998 44.6112 60.4742C44.7261 60.7487 44.9405 60.9695 45.2115 61.0926C45.5381 61.248 45.911 61.2756 46.257 61.1701C46.6029 61.0647 46.897 60.8338 47.0815 60.5227C47.1499 60.375 47.1873 60.2149 47.1914 60.0522C47.1954 59.8895 47.1661 59.7278 47.1052 59.5769C47.0443 59.426 46.9531 59.2891 46.8372 59.1749C46.7213 59.0607 46.5832 58.9715 46.4315 58.9127ZM46.5715 60.2527C46.2815 61.0627 44.8015 60.7427 45.1515 59.7527C45.4615 58.9827 46.8715 59.3027 46.5715 60.2527Z" fill="#BABAB3"></path><path d="M39.6014 60.3019C39.7383 60.2485 39.8558 60.1549 39.9387 60.0336C40.0216 59.9123 40.0659 59.7688 40.0659 59.6219C40.0659 59.4749 40.0216 59.3314 39.9387 59.2101C39.8558 59.0888 39.7383 58.9952 39.6014 58.9418C39.0392 58.8548 38.4693 58.828 37.9014 58.8618C37.861 59.6313 37.861 60.4024 37.9014 61.1719H38.4314V60.4119H39.0114C39.1914 60.6219 39.3114 60.9019 39.4714 61.1319C39.6314 61.3619 39.9214 61.1319 40.1314 61.1319L39.5814 60.2819L39.6014 60.3019ZM39.3814 59.8318C39.1913 59.9085 38.985 59.9361 38.7814 59.9119C38.6614 59.9119 38.4714 59.9719 38.4014 59.9119V59.4319C38.5714 59.3319 38.9414 59.4319 39.1814 59.4319C39.4214 59.4319 39.6214 59.6818 39.3814 59.8318Z" fill="#BABAB3"></path><path d="M24.2008 59.7916H22.9408V60.2315H23.6708C23.6708 60.3715 23.7408 60.5815 23.6008 60.6415C23.34 60.7416 23.0515 60.7416 22.7908 60.6415C22.6684 60.5891 22.5642 60.5019 22.491 60.3908C22.4177 60.2797 22.3787 60.1496 22.3787 60.0165C22.3787 59.8835 22.4177 59.7532 22.491 59.6421C22.5642 59.531 22.6684 59.444 22.7908 59.3915C22.9838 59.3334 23.1869 59.3166 23.3868 59.3425C23.5867 59.3683 23.7789 59.4362 23.9508 59.5416C23.9508 59.3616 24.0108 59.1115 23.9508 58.9715C23.2708 58.7215 22.2208 58.7515 21.9508 59.5315C21.3908 60.9515 23.1608 61.6816 24.2008 60.9316C24.2317 60.5522 24.2317 60.1709 24.2008 59.7916Z" fill="#BABAB3"></path><path d="M42.9833 58.8621V60.2421C42.2533 59.4121 42.3233 58.7021 41.3633 58.8621V61.1721H41.8733V59.6021C42.2533 60.0921 42.5833 60.6021 42.9533 61.1321C43.0833 61.2121 43.2733 61.1321 43.4333 61.1321V58.832L42.9833 58.8621Z" fill="#BABAB3"></path><path d="M36.0509 60.6901C35.8209 60.6901 35.3809 60.7701 35.2709 60.6901V60.2902H36.3309V59.8002H35.3309C35.2109 59.8002 35.3309 59.5501 35.3309 59.4401C35.5709 59.2901 36.1809 59.4401 36.5409 59.3901C36.6609 59.3901 36.5409 59.0102 36.6009 58.9102H34.7109V61.2201H36.5709V60.7401L36.0509 60.6901Z" fill="#BABAB3"></path><path d="M32.7738 58.8594C32.7012 59.6272 32.6845 60.3992 32.7238 61.1694H33.2738V58.8594H32.7738Z" fill="#BABAB3"></path><path d="M51.4625 58.8711H50.3125V61.1812C50.9725 61.1812 51.7825 61.351 52.3125 60.821C52.4663 60.6556 52.5685 60.449 52.6066 60.2263C52.6446 60.0036 52.6167 59.7747 52.5265 59.5676C52.4362 59.3605 52.2874 59.1843 52.0984 59.0605C51.9094 58.9368 51.6884 58.871 51.4625 58.8711ZM51.9425 60.3511C51.7425 60.7511 51.2425 60.6511 50.8725 60.6611V59.3811C51.5525 59.2511 52.2725 59.5411 51.9425 60.3511Z" fill="#BABAB3"></path><path d="M66.654 59.9108C66.294 59.6808 65.844 59.7807 65.464 59.6107C65.084 59.1107 66.564 59.3007 66.754 59.4907C66.754 59.3207 66.844 58.9708 66.654 58.9308C66.3813 58.8522 66.0976 58.8183 65.814 58.8307C65.024 58.7407 64.334 59.6107 65.194 60.0707C65.534 60.2207 65.934 60.1408 66.264 60.2908C66.674 60.9308 65.064 60.7107 64.814 60.4607C64.814 60.6607 64.814 60.8908 64.814 61.0608C65.135 61.1729 65.4742 61.2236 65.814 61.2107C66.554 61.3207 67.384 60.4808 66.654 59.9108Z" fill="#BABAB3"></path><path d="M63.383 60.6993H62.193C62.083 60.6993 62.193 60.3594 62.193 60.2494H63.193C63.293 60.2494 63.193 59.8794 63.193 59.7494H62.143V59.3394H63.413C63.413 59.2194 63.473 58.8894 63.363 58.8594H61.633C61.5607 59.6272 61.544 60.3992 61.583 61.1694H63.443C63.443 61.0294 63.443 60.8894 63.443 60.7494C63.443 60.6094 63.443 60.6993 63.383 60.6993Z" fill="#BABAB3"></path><path d="M55.1911 60.7001C54.9611 60.7001 54.5211 60.7801 54.4111 60.6401V60.2501H55.4811V59.7501C55.1711 59.7501 54.6111 59.8401 54.4111 59.7501C54.4111 59.6501 54.3511 59.3901 54.4711 59.3901H55.6211C55.6811 59.3901 55.6811 59.3901 55.6811 59.3301V58.9102H53.8711V61.2201H55.7311V60.7501L55.1911 60.7001Z" fill="#BABAB3"></path><path d="M70.1011 58.911C69.3598 58.8435 68.6147 58.8268 67.8711 58.8609C67.8711 59.0109 67.8711 59.161 67.8711 59.311C67.8711 59.461 68.4211 59.311 68.6611 59.311C68.7122 59.9133 68.7122 60.5187 68.6611 61.1209H69.2311V59.311H70.0111C70.1711 59.311 70.0711 59.051 70.1011 58.911Z" fill="#BABAB3"></path><path d="M57.5834 60.5994V58.9194C57.5834 58.7994 57.1634 58.9194 57.0234 58.8594V61.1694H58.6534V60.6594H57.5834V60.5994Z" fill="#BABAB3"></path><path d="M80.5528 59.7012C80.4028 58.8612 79.3628 58.7013 78.6628 58.9313C78.3955 59.0413 78.1774 59.2448 78.0492 59.5039C77.921 59.763 77.8915 60.06 77.9662 60.3392C78.0409 60.6185 78.2147 60.8609 78.4552 61.0213C78.6956 61.1818 78.9862 61.2493 79.2728 61.2112C79.4661 61.2287 79.6608 61.1994 79.8404 61.1258C80.02 61.0523 80.1793 60.9366 80.3048 60.7886C80.4303 60.6405 80.5184 60.4644 80.5615 60.2751C80.6047 60.0859 80.6017 59.889 80.5528 59.7012ZM79.9828 60.2612C79.6928 61.0612 78.2228 60.7512 78.5628 59.7512C78.8728 58.9812 80.3028 59.3112 79.9828 60.2512V60.2612Z" fill="#BABAB3"></path><path d="M75.7303 58.8711C75.3403 58.8711 74.9503 58.8711 74.5703 58.8711V61.1812C75.2703 61.1812 76.1603 61.3711 76.6403 60.7111C76.7642 60.5399 76.8391 60.3383 76.8567 60.1278C76.8744 59.9173 76.8342 59.7059 76.7406 59.5165C76.6469 59.3271 76.5033 59.167 76.3253 59.0532C76.1472 58.9395 75.9415 58.8765 75.7303 58.8711ZM76.1103 60.4811C75.8503 60.7311 75.4603 60.6511 75.1103 60.6611V59.3811C75.4403 59.3811 75.8303 59.3011 76.1103 59.5511C76.2184 59.682 76.2776 59.8464 76.2776 60.0161C76.2776 60.1858 76.2184 60.3502 76.1103 60.4811Z" fill="#BABAB3"></path><path d="M72.502 58.9002C72.2535 58.8301 71.9905 58.8301 71.742 58.9002C71.442 59.6602 71.132 60.4202 70.832 61.1702C71.032 61.1702 71.272 61.2302 71.432 61.1702C71.592 61.1102 71.512 60.8102 71.642 60.7302C71.9744 60.6937 72.3097 60.6937 72.642 60.7302L72.792 61.1302C72.952 61.2202 73.222 61.1302 73.422 61.1302C73.112 60.4102 72.802 59.6602 72.502 58.9002ZM71.772 60.2402L72.112 59.3402L72.442 60.2402H71.772Z" fill="#BABAB3"></path><path d="M10.1131 56.4813H9.45312C9.79313 56.2013 9.76312 55.9314 9.78312 55.3914V49.3914C9.78312 48.8514 9.78313 48.5714 9.45312 48.3014C11.4531 48.3714 14.8431 48.0614 16.6331 48.7814C20.1731 49.7814 20.1331 55.1013 16.6331 56.1113C15.1231 56.6713 11.8731 56.4513 10.1131 56.4813ZM13.5031 54.6414C14.0384 54.6983 14.5796 54.6324 15.0856 54.4487C15.5916 54.2651 16.049 53.9684 16.4231 53.5813C16.6162 53.3059 16.7417 52.9889 16.7894 52.6559C16.837 52.3229 16.8055 51.9833 16.6974 51.6648C16.5893 51.3463 16.4076 51.0578 16.1671 50.8226C15.9266 50.5875 15.634 50.4124 15.3131 50.3114C14.3132 50.064 13.2805 49.9762 12.2531 50.0514V54.6414H13.5031Z" fill="#52545B"></path><path d="M26.4314 56.6722C20.8814 56.6722 21.8414 53.3622 21.7914 49.3322C21.7914 48.7922 21.7914 48.5122 21.4414 48.2422H24.6014C24.2514 48.5122 24.2914 48.7922 24.2714 49.3322V53.2222C24.2714 54.4922 25.0914 54.7422 26.3914 54.7622C27.6914 54.7822 28.5114 54.5022 28.5514 53.2222V49.3322C28.5514 48.7922 28.5514 48.5122 28.2214 48.2422H31.2214C30.8614 48.5122 30.9014 48.7922 30.8814 49.3322C30.8714 53.1922 31.8714 56.6922 26.4314 56.6722Z" fill="#52545B"></path><path d="M34.4122 56.4828H33.7422C34.0922 56.2028 34.0522 55.9328 34.0722 55.3928V49.3928C34.0722 48.8528 34.0722 48.5729 33.7422 48.3029C35.6222 48.3829 39.5622 48.0928 41.2722 48.5828C41.8171 48.6567 42.314 48.9338 42.6633 49.3585C43.0126 49.7833 43.1884 50.3245 43.1555 50.8734C43.1226 51.4224 42.8834 51.9387 42.486 52.3188C42.0885 52.6988 41.5621 52.9146 41.0122 52.9229C41.8822 53.1229 42.4722 53.4529 42.6722 54.2729C42.8722 54.8329 42.9822 56.1829 43.4822 56.5329H40.6622C40.4722 55.9929 40.4022 54.3928 39.8322 54.0928C39.2622 53.7928 37.1222 53.9228 36.4622 53.8628C36.5422 54.4828 36.2422 56.1628 36.8022 56.5028L34.4122 56.4828ZM38.9022 52.0828C39.3564 52.1151 39.8112 52.029 40.2222 51.8328C40.3464 51.7396 40.4472 51.6189 40.5166 51.48C40.586 51.3412 40.6222 51.1881 40.6222 51.0329C40.6222 50.8776 40.586 50.7245 40.5166 50.5856C40.4472 50.4467 40.3464 50.326 40.2222 50.2328C39.6022 49.8228 37.3022 50.0328 36.4822 49.9828V52.0828H38.9022Z" fill="#52545B"></path><path d="M45.8139 56.4795H45.0039C45.3439 56.2795 45.4039 56.0595 45.6139 55.6095L48.4839 49.1295C48.6239 48.7295 48.8039 48.4695 48.4839 48.2695H52.7739C52.4539 48.4695 52.6339 48.7295 52.7739 49.1295L55.6339 55.6095C55.8339 56.0595 55.9039 56.2795 56.2339 56.4795H53.0339C53.5339 56.2095 52.8339 55.2395 52.7039 54.8295H48.4539C48.3139 55.2495 47.6339 56.1895 48.1439 56.4795H45.8139ZM49.0539 53.0795H52.0539L50.5439 49.5596L49.0539 53.0795Z" fill="#52545B"></path><path d="M60.6333 55.3512C60.6333 55.8912 60.6333 56.1612 60.9633 56.4612H58.1133C58.4533 56.1812 58.4333 55.9112 58.4533 55.3712V49.3712C58.4533 48.8312 58.4533 48.5513 58.1133 48.2812H60.9633L65.3933 53.0912H65.4733V49.4113C65.4733 48.8713 65.4733 48.6012 65.1333 48.3212H67.9633C67.6133 48.5912 67.6333 48.8713 67.6133 49.4113V56.5613H65.6133L60.6933 51.2512H60.6333V55.3512Z" fill="#52545B"></path><path d="M75.8013 56.679C71.6613 56.959 69.2213 53.5689 71.0913 49.9489C72.9613 47.1589 77.0913 48.069 79.9813 48.549L78.9813 50.549C78.0813 49.549 75.6913 49.549 74.5013 49.999C73.0613 50.529 72.8213 52.519 73.4413 53.719C74.4413 55.479 78.3613 55.329 78.3313 52.919C77.6213 52.979 75.7913 52.779 75.2013 53.099H75.1013L75.3613 51.489H80.8013C80.9368 52.1829 80.903 52.8993 80.7029 53.5775C80.5028 54.2556 80.1421 54.8756 79.6516 55.3849C79.161 55.8941 78.5549 56.2775 77.8847 56.5028C77.2145 56.7281 76.4999 56.7886 75.8013 56.679Z" fill="#52545B"></path><path d="M87.8736 56.6993C85.0436 56.7993 82.6436 55.2894 82.7536 52.3094C82.6436 49.3094 85.0736 47.8893 87.8736 47.9893C90.6736 47.8893 93.0836 49.3594 92.9836 52.3094C93.0536 55.2494 90.6736 56.7993 87.8736 56.6993ZM87.8736 54.8193C91.4036 55.0693 91.4236 49.6093 87.8736 49.8193C84.2636 49.5993 84.2936 55.0693 87.8736 54.8193Z" fill="#52545B"></path><path d="M61.2827 12.1094C61.2827 25.5894 60.7727 30.3994 51.3727 40.1094C41.9727 30.4094 41.4527 25.5994 41.4527 12.1094C40.6327 12.3594 39.8027 12.6393 38.9727 12.9393C38.9727 27.5293 40.2327 31.5394 51.3727 41.1294C62.5027 31.5394 63.7627 27.5293 63.7627 12.9393C62.9327 12.6393 62.1127 12.3594 61.2827 12.1094Z" fill="#52545B"></path><path fill-rule="evenodd" clip-rule="evenodd" d="M51.1133 41.25C49.5189 41.9128 48.1358 42.9986 47.1133 44.39C47.8943 44.0152 48.7471 43.8139 49.6133 43.8C49.5759 43.2731 49.6993 42.7473 49.9671 42.292C50.2349 41.8367 50.6346 41.4733 51.1133 41.25Z" fill="#52545B"></path><path fill-rule="evenodd" clip-rule="evenodd" d="M51.6211 41.25C53.2147 41.9142 54.5975 42.9997 55.6211 44.39C54.8409 44.0131 53.9875 43.8117 53.1211 43.8C53.1585 43.2731 53.0351 42.7473 52.7673 42.292C52.4995 41.8367 52.0998 41.4733 51.6211 41.25Z" fill="#52545B"></path><path d="M37.874 8.69922C28.214 28.0492 49.414 40.2493 49.414 40.2493C34.764 29.0593 36.294 13.7692 37.874 8.69922Z" fill="#BABAB3"></path><path d="M38.2305 30.5405C37.7883 29.798 37.1969 29.1552 36.4937 28.6528C35.7905 28.1505 34.9907 27.7993 34.145 27.6217C33.2992 27.4441 32.4258 27.4438 31.5799 27.6209C30.734 27.7979 29.934 28.1486 29.2305 28.6505C29.2305 28.6505 32.9305 26.1904 37.2305 31.5704C38.8651 33.8087 41.0969 35.5415 43.6705 36.5704C42.4105 35.6604 40.9805 34.6805 38.2305 30.5405Z" fill="#52545B"></path><path d="M37.492 28.871C36.7101 27.9607 35.7033 27.2712 34.572 26.871C33.2506 25.0685 31.2835 23.8466 29.082 23.4609C30.8538 23.4668 32.5869 23.9793 34.077 24.9379C35.5671 25.8964 36.7521 27.2611 37.492 28.871Z" fill="#BABAB3"></path><path d="M64.873 8.69922C74.493 28.0492 53.293 40.2693 53.293 40.2693C67.973 29.0593 66.443 13.7692 64.873 8.69922Z" fill="#BABAB3"></path><path d="M64.5025 30.54C64.9457 29.7986 65.5376 29.1569 66.2409 28.6554C66.9442 28.1539 67.7436 27.8034 68.589 27.6258C69.4343 27.4483 70.3073 27.4476 71.1529 27.6239C71.9985 27.8001 72.7985 28.1495 73.5025 28.65C73.5025 28.65 69.8025 26.1899 65.5025 31.5699C63.8632 33.8037 61.6328 35.5353 59.0625 36.5699C60.3225 35.6599 61.7625 34.68 64.5025 30.54Z" fill="#52545B"></path><path d="M65.2422 28.871C66.0241 27.9607 67.0309 27.2712 68.1622 26.871C69.486 25.0663 71.4571 23.8442 73.6622 23.4609C71.8892 23.4674 70.155 23.98 68.6634 24.9384C67.1718 25.8967 65.9849 27.2611 65.2422 28.871Z" fill="#BABAB3"></path><path d="M43.8713 6.95056C43.4713 19.8406 44.8713 30.3607 51.4113 39.3007C57.9213 30.3007 59.3413 19.8006 58.9413 6.89062C56.5947 8.03032 54.0218 8.62743 51.4131 8.63782C48.8044 8.6482 46.2268 8.07154 43.8713 6.95056Z" fill="#52545B"></path><path d="M55.8718 3.62236C55.7054 3.28649 55.4394 3.01021 55.11 2.83122C54.7807 2.65224 54.4041 2.57929 54.0318 2.62236C53.8713 2.43045 53.6721 2.27459 53.4472 2.16484C53.2224 2.0551 52.9769 1.99389 52.7269 1.9854C52.4768 1.97691 52.2278 2.02129 51.996 2.11553C51.7643 2.20976 51.555 2.35182 51.3818 2.5324C51.2078 2.35324 50.9983 2.21241 50.7667 2.11907C50.535 2.02573 50.2864 1.98193 50.0369 1.9904C49.7873 1.99888 49.5422 2.05942 49.3175 2.16826C49.0927 2.2771 48.8932 2.43181 48.7318 2.62236C46.5818 2.39236 46.0118 5.47235 46.8618 6.86235C47.1118 7.28235 47.2618 7.3624 47.3918 7.4124C48.7038 7.71248 50.046 7.86006 51.3918 7.85234C52.7376 7.86042 54.0799 7.71283 55.3918 7.4124C55.5318 7.3624 55.6718 7.28235 55.9218 6.86235C56.1728 6.35755 56.2992 5.79995 56.2905 5.23625C56.2818 4.67256 56.1382 4.11918 55.8718 3.62236ZM47.3718 6.96233C47.2218 6.96233 46.8118 6.43242 46.7318 5.30242C46.6558 4.7748 46.7813 4.23785 47.0834 3.79863C47.3854 3.35942 47.8419 3.05018 48.3618 2.93242C48.4318 2.93242 48.4618 3.03241 48.3618 3.04241C46.3618 3.49241 46.6318 5.92233 47.3218 6.96233H47.3718ZM48.1718 7.04241C46.5118 6.75241 46.8318 3.63238 48.1718 3.26238C48.3018 3.20238 48.4018 3.20238 48.3218 3.39238C48.1296 3.90251 48.0544 4.44928 48.1018 4.99236C48.1456 5.74371 48.3758 6.47232 48.7718 7.11235C48.5533 7.112 48.3354 7.08858 48.1218 7.04241H48.1718ZM49.1018 7.14238C48.5528 6.47703 48.2649 5.63456 48.2918 4.77239C48.2118 2.70239 50.0218 1.4824 51.2918 2.9124C51.2918 2.9724 51.2418 3.03234 51.1918 2.97234C49.9718 1.63234 48.3318 2.83239 48.4118 4.77239C48.4534 5.58165 48.6938 6.36822 49.1118 7.06243C49.1224 7.07038 49.1294 7.08214 49.1313 7.09526C49.1332 7.10839 49.1298 7.12176 49.1218 7.13237C49.1138 7.14298 49.102 7.15003 49.0889 7.1519C49.0757 7.15378 49.0624 7.15034 49.0518 7.14238H49.1018ZM49.7618 7.21233C48.4418 6.60233 48.1618 3.78241 49.3518 2.79241C50.1318 2.25241 51.1718 2.7924 50.8418 3.5324C50.5989 4.02973 50.4562 4.56995 50.4218 5.12236C50.3618 6.83236 50.7818 7.2824 50.7818 7.2824C50.426 7.33332 50.0642 7.32314 49.7118 7.25237L49.7618 7.21233ZM51.3818 7.37236C50.5718 7.20236 50.6218 3.69236 51.3818 3.37236C52.0918 3.68236 52.1318 7.19236 51.3318 7.37236H51.3818ZM53.0018 7.21233C52.6741 7.28756 52.3367 7.31125 52.0018 7.2824C52.0018 7.2824 52.4318 6.83236 52.3618 5.12236C52.3337 4.57014 52.1943 4.02933 51.9518 3.5324C51.6118 2.7524 52.6518 2.25241 53.4318 2.79241C54.5418 3.78241 54.2618 6.60237 52.9518 7.25237L53.0018 7.21233ZM53.6918 7.21233C53.4818 7.15233 54.3718 6.16231 54.3518 4.82231C54.4218 2.88231 52.7818 1.68239 51.5618 3.02239C51.5618 3.08239 51.4218 3.02233 51.4718 2.96233C52.7318 1.53233 54.5518 2.75231 54.4718 4.82231C54.4385 5.66837 54.1491 6.48447 53.6418 7.1624L53.6918 7.21233ZM54.5818 7.09233C54.4011 7.133 54.2169 7.15651 54.0318 7.1624C54.4227 6.52074 54.6494 5.79258 54.6918 5.04241C54.7394 4.50014 54.6677 3.95393 54.4818 3.44231C54.3918 3.25231 54.4818 3.25243 54.6318 3.31243C55.8718 3.63243 56.1918 6.76241 54.5318 7.04241L54.5818 7.09233ZM55.4618 7.00237C55.4118 7.06237 55.3318 7.00241 55.3818 6.92241C56.2018 6.11241 56.1618 3.33233 54.3818 3.09233C54.3118 3.09233 54.3818 2.96235 54.3818 2.98235C56.2218 3.18235 56.2918 6.09232 55.4118 6.95232L55.4618 7.00237Z" fill="#52545B"></path><path d="M51.6131 2.25269L51.3531 1.81274L51.5431 1.6427L51.9331 1.90271L51.8631 1.58264L51.9631 1.30273L51.5531 1.58264L51.3731 1.38269L51.6231 0.972656L51.3331 1.08264L51.0431 0.972656L51.2931 1.38269L51.1031 1.58264L50.7031 1.30273L50.8031 1.58264L50.7231 1.90271L51.1131 1.6427L51.3031 1.81274L51.0431 2.25269L51.3331 2.45264C51.4215 2.37925 51.515 2.31245 51.6131 2.25269Z" fill="#52545B"></path><path d="M55.3531 7.77279C55.3436 7.73445 55.3194 7.70134 55.2857 7.68075C55.252 7.66015 55.2115 7.65375 55.1731 7.6628C53.9097 7.95001 52.6186 8.0975 51.3231 8.10274C50.0242 8.09751 48.7298 7.95002 47.4631 7.6628C47.4446 7.65672 47.425 7.65483 47.4058 7.65731C47.3865 7.65979 47.368 7.66653 47.3517 7.67708C47.3354 7.68764 47.3217 7.70166 47.3115 7.71822C47.3014 7.73478 47.2951 7.75347 47.2931 7.77279C47.284 7.81123 47.2905 7.85164 47.3111 7.88534C47.3317 7.91904 47.3647 7.94324 47.4031 7.95272C48.6892 8.24548 50.004 8.39313 51.3231 8.39278C52.6387 8.39255 53.9502 8.2449 55.2331 7.95272C55.272 7.94318 55.3059 7.9194 55.3281 7.88607C55.3503 7.85274 55.3592 7.81236 55.3531 7.77279Z" fill="#52545B"></path><path opacity="0.35" d="M56.9606 18.0693C56.9006 19.9393 55.1106 21.4693 53.5206 20.3593C53.7417 20.6047 54.0236 20.7875 54.3378 20.8893C54.6521 20.9911 54.9876 21.0083 55.3106 20.9392C54.8806 22.6292 52.0206 22.9393 51.3106 21.3593C51.017 21.6079 50.6732 21.79 50.3026 21.8933C49.932 21.9967 49.5435 22.0187 49.1636 21.9579C48.7838 21.8971 48.4215 21.755 48.1017 21.5412C47.7819 21.3274 47.512 21.047 47.3106 20.7193C47.6605 20.8325 48.0357 20.8417 48.3907 20.7459C48.7457 20.65 49.0653 20.4533 49.3106 20.1794C45.8306 22.2594 44.3106 15.3693 48.0106 15.0893C47.7124 15.0459 47.4082 15.0741 47.1231 15.1714C46.8379 15.2688 46.58 15.4326 46.3706 15.6493C46.0906 13.4993 49.4706 11.3993 50.9806 13.3893C50.8366 13.1086 50.6232 12.8693 50.3607 12.6943C50.0981 12.5192 49.7952 12.4142 49.4806 12.3893C49.7292 12.1487 50.0235 11.9603 50.3461 11.8352C50.6686 11.7102 51.013 11.651 51.3588 11.6613C51.7047 11.6715 52.0449 11.751 52.3595 11.8949C52.6742 12.0389 52.9567 12.2444 53.1906 12.4993C52.8277 12.5373 52.4822 12.6739 52.1913 12.8942C51.9005 13.1145 51.6755 13.4103 51.5406 13.7493C53.5406 10.6293 58.7106 15.2193 55.3006 17.2293C55.5687 17.1623 55.8191 17.0383 56.0348 16.8658C56.2505 16.6932 56.4265 16.4761 56.5506 16.2293C56.8666 16.7884 57.0093 17.4288 56.9606 18.0693Z" fill="white"></path><path d="M51.1819 26.7325C51.1119 27.7325 51.2719 29.2126 50.3919 29.7926C50.0319 30.0526 50.0819 30.0225 49.6719 29.9625C49.3577 29.9478 49.0477 30.0394 48.7919 30.2225C48.5619 30.3225 48.2319 30.3325 48.1719 30.3825C48.5055 30.4263 48.8443 30.4093 49.1719 30.3325C49.6985 30.2125 50.2453 30.2125 50.7719 30.3325C50.4319 30.4125 49.5819 30.6325 49.2119 30.7625C49.0419 30.8225 49.5119 30.7625 50.2119 30.6225C50.9119 30.4825 50.9619 30.6225 51.4319 30.6225C51.8688 30.5685 52.3122 30.6095 52.7319 30.7425C53.1019 30.8625 53.1919 30.8025 53.1219 30.7425C52.7222 30.4901 52.264 30.3454 51.7919 30.3225C51.6619 30.3225 51.9619 30.2225 52.2819 30.1225C52.8619 30.0325 53.0519 30.2825 53.6319 30.2425C53.7419 30.2425 55.2119 30.2425 54.6319 30.1425C54.0822 30.1075 53.5368 30.0238 53.0019 29.8925C51.9119 29.4925 52.1419 27.7225 52.1019 26.5725C51.7872 26.5584 51.4733 26.613 51.1819 26.7325Z" fill="white"></path><path d="M53.4425 19.9709C53.8222 19.9972 54.2026 19.9309 54.551 19.7776C54.8994 19.6243 55.2053 19.3886 55.4425 19.0909C54.7078 19.5342 53.8329 19.6842 52.9925 19.511C53.4597 19.2401 53.8356 18.8363 54.0725 18.351C54.3186 18.3846 54.5693 18.3545 54.8004 18.2634C55.0316 18.1724 55.2354 18.0234 55.3925 17.8309C55.2309 17.9423 55.0466 18.0162 54.8528 18.0474C54.6591 18.0785 54.4608 18.0661 54.2725 18.011C54.5494 17.5092 54.7133 16.9528 54.7525 16.381C54.5025 17.701 52.6125 19.921 51.6925 19.381C51.6025 19.231 51.6925 19.001 52.2625 18.301C52.5768 17.934 52.7843 17.4878 52.8625 17.011C54.3025 16.541 54.3125 14.651 54.3125 14.651C54.2871 15.0296 54.15 15.3922 53.9186 15.693C53.6873 15.9938 53.3719 16.2193 53.0125 16.3409C53.0125 16.3409 53.0125 14.7109 52.2725 14.2109C52.5044 14.6619 52.6328 15.1589 52.6484 15.6658C52.664 16.1726 52.5663 16.6766 52.3625 17.141C52.3554 16.995 52.3063 16.8541 52.2212 16.7352C52.1361 16.6164 52.0185 16.5246 51.8825 16.4709C52.0525 16.6909 52.2125 18.0209 51.6025 18.4709C50.8025 19.2609 49.9125 17.4709 50.2225 15.4709C50.2225 15.4709 49.7325 16.141 50.1525 17.981C49.7205 17.8149 49.3262 17.5638 48.993 17.2426C48.6598 16.9213 48.3944 16.5366 48.2125 16.111C48.2125 16.111 48.3725 17.5809 50.4825 18.7209C50.4825 18.7209 50.6725 18.781 50.8525 19.491C51.0325 20.201 50.2525 20.3709 49.4325 19.8309C49.1861 19.6459 48.9827 19.4098 48.836 19.1388C48.6893 18.8678 48.6028 18.5684 48.5825 18.261C48.5108 18.7031 48.5627 19.1564 48.7325 19.5709C48.3104 19.4708 47.9125 19.2873 47.5625 19.031C47.9698 19.5122 48.4833 19.8922 49.0625 20.141C49.8225 20.551 50.7525 20.971 50.9225 21.491C51.0225 21.821 51.2825 22.4009 51.2525 25.3209C51.5577 25.2417 51.8505 25.1206 52.1225 24.9609C52.0525 22.7609 52.0925 19.9909 53.4425 19.9709Z" fill="white"></path><path d="M48.8008 28.0826C48.8008 28.1526 49.0708 28.0826 49.0708 28.0826C49.1412 27.7377 49.3372 27.4312 49.6208 27.2227C49.2666 27.4196 48.9807 27.7195 48.8008 28.0826Z" fill="white"></path><path d="M52.7721 26.5508C53.1021 26.5508 52.522 27.0107 52.512 27.2007C52.502 27.3907 52.722 27.4307 52.722 27.3907C52.722 27.3507 52.722 27.2607 52.902 26.9607C53.082 26.6607 53.1721 26.7608 53.1721 26.6808C53.1721 26.6008 52.7721 26.5508 52.7721 26.5508Z" fill="white"></path><path d="M55.1627 26.5521C55.0927 26.5521 55.1627 26.372 55.0727 26.332H54.9727C54.9727 26.392 55.1027 26.502 55.0427 26.592C54.9827 26.682 55.1627 26.812 55.1627 26.692C55.1523 26.6459 55.1523 26.5982 55.1627 26.5521Z" fill="white"></path><path d="M55.3541 25.8912C55.3541 25.8912 55.3541 25.8313 55.3541 25.8113C55.3541 25.7913 55.3541 25.5712 55.2641 25.7112C55.2485 25.7497 55.2485 25.7927 55.2641 25.8312C55.2641 25.8812 55.2641 25.8312 55.2641 25.7212C55.2641 25.6112 55.1941 25.8813 55.2641 25.9213C55.3341 25.9613 55.2641 25.8312 55.1441 25.7712C55.0241 25.7112 54.6541 25.7712 54.5841 25.9012C54.6313 25.8209 54.6963 25.7525 54.7741 25.7012C54.6941 25.6212 54.6641 25.5312 54.6841 25.5012C54.7041 25.4712 54.4041 24.9113 54.3241 24.9313C53.9941 24.2913 54.0441 24.9312 54.1041 25.1012C54.042 25.0078 54.001 24.9021 53.9841 24.7913C53.2641 24.3913 51.6441 25.3812 51.0541 25.5212C50.8075 25.5865 50.5484 25.5882 50.301 25.5262C50.0536 25.4643 49.8259 25.3406 49.6392 25.1669C49.4525 24.9931 49.3128 24.775 49.2332 24.5327C49.1536 24.2904 49.1367 24.0319 49.1841 23.7812C48.7641 24.6212 49.0941 25.0312 49.0941 25.0312L48.8741 24.9512C49.1241 25.7712 50.2741 25.8912 50.2741 25.8912C50.3174 25.8072 50.3879 25.7402 50.4741 25.7012C50.1441 26.0812 50.4141 26.0412 49.8141 26.6012C49.3941 27.0312 49.0741 26.9112 49.0541 26.9812C49.036 27.1526 48.9702 27.3154 48.8641 27.4512C48.7496 27.6027 48.6111 27.7344 48.4541 27.8412C48.4541 27.8412 48.3641 27.8413 48.4541 28.0513C48.5441 28.2613 48.6141 28.1813 48.6141 28.1813C48.8154 27.7874 49.1121 27.4502 49.4772 27.2004C49.8423 26.9507 50.264 26.7962 50.7041 26.7512C51.7741 26.6112 51.4141 25.8412 51.4141 25.8412C51.5123 25.9118 51.5809 26.0162 51.6067 26.1344C51.6326 26.2526 51.6138 26.3761 51.5541 26.4812C53.9641 26.0912 54.3441 27.3812 54.3441 27.3812C54.7241 27.2512 54.4741 27.0912 54.3441 26.9012C54.334 26.8015 54.334 26.7009 54.3441 26.6012C54.3441 26.5312 54.4841 26.4712 54.4941 26.3712C54.4941 26.4612 54.3441 26.5813 54.3841 26.6613C54.4241 26.7413 54.3841 26.7813 54.3841 26.8113C54.3841 26.8413 54.4541 27.0912 54.4741 26.9012C54.4807 26.9171 54.4841 26.934 54.4841 26.9512C54.4841 26.9683 54.4807 26.9854 54.4741 27.0012C54.4741 27.0612 54.5641 27.0012 54.5341 26.8812C54.4987 26.7672 54.4987 26.6452 54.5341 26.5312C54.5341 26.4413 54.5341 26.3213 54.6341 26.3013C54.7341 26.2813 54.8241 26.2013 54.9441 26.3013C55.0641 26.4013 55.1341 26.3612 55.2141 26.5812C55.2941 26.8012 55.2141 26.3012 55.1341 26.2812C55.2241 26.2812 55.1941 26.1612 55.1941 26.1112C55.1941 26.0612 55.2841 26.2212 55.3441 26.2412C55.3527 26.2427 55.3616 26.2422 55.3701 26.2399C55.3786 26.2375 55.3864 26.2334 55.3931 26.2277C55.3998 26.2219 55.4051 26.2148 55.4088 26.2068C55.4124 26.1988 55.4142 26.1901 55.4141 26.1813C55.3641 26.0313 55.4141 25.9912 55.3541 25.8912ZM54.4641 25.8912H54.3941L54.2841 25.7612C54.2841 25.7612 54.3041 25.8213 54.4641 25.9313V25.8912ZM54.5341 26.1012C54.5341 26.1012 54.3541 26.1012 54.2641 26.0212C54.2641 26.0212 54.1541 26.1913 54.1741 26.1713C54.1941 26.1513 54.1741 26.3712 54.1741 26.2712C54.1741 26.1712 54.2641 26.4612 54.1741 26.5012C54.0841 26.5412 54.1741 26.6812 54.1141 26.7412C53.6741 26.2512 52.8041 26.3612 53.1741 25.8812C53.2197 25.8169 53.2442 25.7401 53.2442 25.6613C53.2442 25.5824 53.2197 25.5054 53.1741 25.4412C53.2185 25.4797 53.2542 25.5273 53.2786 25.5808C53.3031 25.6343 53.3157 25.6924 53.3157 25.7512C53.3157 25.81 53.3031 25.8681 53.2786 25.9216C53.2542 25.9751 53.2185 26.0228 53.1741 26.0613C53.4584 26.0108 53.7323 25.9127 53.9841 25.7712C53.9841 25.7712 53.9841 25.7712 54.1341 25.9512C54.1341 25.9512 54.1341 25.9512 54.1341 26.0212C54.1599 26.0559 54.1967 26.0808 54.2385 26.0917C54.2803 26.1026 54.3246 26.0988 54.3641 26.0812C54.3641 26.0812 54.2941 25.9912 54.2741 25.9512C54.2541 25.9112 54.5641 26.1112 54.5341 26.1412V26.1012Z" fill="white"></path><path d="M116.413 31.05C116.455 26.036 116.161 21.0248 115.533 16.05V0.359985C115.533 0.264507 115.495 0.172982 115.427 0.105469C115.36 0.0379557 115.268 0 115.173 0C115.077 0 114.986 0.0379557 114.918 0.105469C114.851 0.172982 114.813 0.264507 114.813 0.359985V16.05C114.19 21.0253 113.896 26.0361 113.933 31.05C113.897 36.0639 114.19 41.0748 114.813 46.05V61.73C114.813 62.18 115.543 62.21 115.533 61.73V46.05C116.16 41.0753 116.454 36.0641 116.413 31.05Z" fill="#52545B"></path></svg> 